<svg width="128" height="26" viewBox="0 0 128 26" fill="none" xmlns="http://www.w3.org/2000/svg">
<g filter="url(#filter0_ii_3173_346)">
<path d="M5.63608 4.67309V20.7277H10.3757C12.8011 20.7277 14.4922 19.5317 15.4491 17.1396C15.972 15.8267 16.2334 14.2636 16.2334 12.4501C16.2334 9.94674 15.8385 8.02753 15.0485 6.69243C14.2697 5.34621 12.7121 4.67309 10.3757 4.67309H5.63608ZM11.2435 0.400773C12.7677 0.423024 14.0361 0.601038 15.0485 0.934813C16.773 1.50223 18.1693 2.5425 19.2374 4.05561C20.0941 5.27945 20.6782 6.60343 20.9897 8.02753C21.3013 9.45164 21.457 10.809 21.457 12.0996C21.457 15.3706 20.8006 18.1409 19.4877 20.4106C17.7076 23.4702 14.9595 25 11.2435 25H0.64614V0.400773H11.2435ZM29.7046 21.6456C31.0953 21.6456 32.1634 21.1505 32.9088 20.1603C33.6543 19.1701 34.027 17.7626 34.027 15.938C34.027 14.1134 33.6543 12.7115 32.9088 11.7324C32.1634 10.7422 31.0953 10.2471 29.7046 10.2471C28.3139 10.2471 27.2402 10.7422 26.4837 11.7324C25.7382 12.7115 25.3655 14.1134 25.3655 15.938C25.3655 17.7626 25.7382 19.1701 26.4837 20.1603C27.2402 21.1505 28.3139 21.6456 29.7046 21.6456ZM39.0169 15.938C39.0169 18.6082 38.2492 20.8946 36.7139 22.7971C35.1785 24.6885 32.8477 25.6342 29.7213 25.6342C26.5949 25.6342 24.2641 24.6885 22.7287 22.7971C21.1933 20.8946 20.4257 18.6082 20.4257 15.938C20.4257 13.3123 21.1933 11.0371 22.7287 9.1123C24.2641 7.18753 26.5949 6.22515 29.7213 6.22515C32.8477 6.22515 35.1785 7.18753 36.7139 9.1123C38.2492 11.0371 39.0169 13.3123 39.0169 15.938ZM59.3472 6.40873C60.1482 6.40873 60.9382 6.56449 61.717 6.87601C62.4958 7.18753 63.2023 7.7327 63.8364 8.51151C64.3482 9.14568 64.6931 9.92449 64.8712 10.8479C64.9824 11.4599 65.038 12.3555 65.038 13.5348L65.0047 25H60.1315V13.418C60.1315 12.7282 60.0203 12.1608 59.7978 11.7157C59.375 10.8702 58.5962 10.4474 57.4613 10.4474C56.1485 10.4474 55.2417 10.9926 54.7411 12.0829C54.4852 12.6614 54.3572 13.3568 54.3572 14.169V25H49.5676V14.169C49.5676 13.0898 49.4563 12.3054 49.2338 11.8159C48.8333 10.9369 48.0489 10.4975 46.8807 10.4975C45.5233 10.4975 44.611 10.9369 44.1437 11.8159C43.8878 12.3165 43.7599 13.062 43.7599 14.0522V25H38.9368V6.84263H43.5596V9.49615C44.1493 8.55045 44.7056 7.87734 45.2285 7.47681C46.1519 6.76475 47.348 6.40873 48.8166 6.40873C50.2073 6.40873 51.331 6.71469 52.1877 7.32661C52.8775 7.89402 53.4004 8.62277 53.7564 9.51283C54.3795 8.44475 55.1527 7.66038 56.0762 7.15972C57.0553 6.65906 58.1456 6.40873 59.3472 6.40873ZM70.8991 4.63972H66.0761V0.250574H70.8991V4.63972ZM66.0761 6.80926H70.8991V25H66.0761V6.80926ZM82.9684 13.3346C82.8794 12.6559 82.6514 12.044 82.2842 11.4988C81.7502 10.7645 80.9213 10.3973 79.7976 10.3973C78.1955 10.3973 77.0996 11.1928 76.5099 12.7838C76.1984 13.6294 76.0426 14.7531 76.0426 16.155C76.0426 17.4901 76.1984 18.5637 76.5099 19.3759C77.0773 20.889 78.1454 21.6456 79.7141 21.6456C80.8267 21.6456 81.6166 21.3452 82.0839 20.7444C82.5512 20.1436 82.8349 19.3648 82.9351 18.4079H87.7915C87.6802 19.8543 87.1573 21.2228 86.2227 22.5134C84.7319 24.5939 82.5234 25.6342 79.5973 25.6342C76.6712 25.6342 74.5184 24.7664 73.1388 23.0307C71.7592 21.2951 71.0694 19.0421 71.0694 16.2718C71.0694 13.1454 71.8315 10.7144 73.3557 8.97879C74.88 7.24316 76.9827 6.37535 79.6641 6.37535C81.9449 6.37535 83.8084 6.88714 85.2548 7.91071C86.7123 8.93429 87.5745 10.7422 87.8416 13.3346H82.9684ZM95.8722 21.6456C97.2629 21.6456 98.331 21.1505 99.0764 20.1603C99.8219 19.1701 100.195 17.7626 100.195 15.938C100.195 14.1134 99.8219 12.7115 99.0764 11.7324C98.331 10.7422 97.2629 10.2471 95.8722 10.2471C94.4815 10.2471 93.4078 10.7422 92.6513 11.7324C91.9058 12.7115 91.5331 14.1134 91.5331 15.938C91.5331 17.7626 91.9058 19.1701 92.6513 20.1603C93.4078 21.1505 94.4815 21.6456 95.8722 21.6456ZM105.185 15.938C105.185 18.6082 104.417 20.8946 102.881 22.7971C101.346 24.6885 99.0152 25.6342 95.8889 25.6342C92.7625 25.6342 90.4316 24.6885 88.8963 22.7971C87.3609 20.8946 86.5932 18.6082 86.5932 15.938C86.5932 13.3123 87.3609 11.0371 88.8963 9.1123C90.4316 7.18753 92.7625 6.22515 95.8889 6.22515C99.0152 6.22515 101.346 7.18753 102.881 9.1123C104.417 11.0371 105.185 13.3123 105.185 15.938ZM115.268 6.37535C117.148 6.37535 118.683 6.87045 119.874 7.86065C121.076 8.83972 121.676 10.4697 121.676 12.7505V25H116.803V13.9354C116.803 12.9785 116.675 12.2442 116.419 11.7324C115.952 10.7979 115.062 10.3306 113.749 10.3306C112.136 10.3306 111.029 11.0148 110.428 12.3833C110.117 13.1065 109.961 14.0299 109.961 15.1536V25H105.221V6.84263H109.811V9.49615C110.423 8.56157 111.001 7.88846 111.546 7.47681C112.525 6.7425 113.766 6.37535 115.268 6.37535ZM122.581 20.0268H127.638V25H122.581V20.0268Z" fill="url(#paint0_linear_3173_346)"/>
</g>
<defs>
<filter id="filter0_ii_3173_346" x="0.646141" y="-0.338714" width="127.581" height="25.9729" filterUnits="userSpaceOnUse" color-interpolation-filters="sRGB">
<feFlood flood-opacity="0" result="BackgroundImageFix"/>
<feBlend mode="normal" in="SourceGraphic" in2="BackgroundImageFix" result="shape"/>
<feColorMatrix in="SourceAlpha" type="matrix" values="0 0 0 0 0 0 0 0 0 0 0 0 0 0 0 0 0 0 127 0" result="hardAlpha"/>
<feOffset dy="-0.589286"/>
<feGaussianBlur stdDeviation="0.589286"/>
<feComposite in2="hardAlpha" operator="arithmetic" k2="-1" k3="1"/>
<feColorMatrix type="matrix" values="0 0 0 0 0 0 0 0 0 0 0 0 0 0 0 0 0 0 0.25 0"/>
<feBlend mode="normal" in2="shape" result="effect1_innerShadow_3173_346"/>
<feColorMatrix in="SourceAlpha" type="matrix" values="0 0 0 0 0 0 0 0 0 0 0 0 0 0 0 0 0 0 127 0" result="hardAlpha"/>
<feOffset dx="0.589286" dy="-0.589286"/>
<feGaussianBlur stdDeviation="0.294643"/>
<feComposite in2="hardAlpha" operator="arithmetic" k2="-1" k3="1"/>
<feColorMatrix type="matrix" values="0 0 0 0 0.94902 0 0 0 0 0.564706 0 0 0 0 0.380392 0 0 0 1 0"/>
<feBlend mode="normal" in2="effect1_innerShadow_3173_346" result="effect2_innerShadow_3173_346"/>
</filter>
<linearGradient id="paint0_linear_3173_346" x1="1.12931" y1="18.375" x2="129.629" y2="8.61607" gradientUnits="userSpaceOnUse">
<stop stop-color="#E26525"/>
<stop offset="0.168556" stop-color="#F7964B"/>
<stop offset="0.312059" stop-color="#E16039"/>
<stop offset="0.521619" stop-color="#FFA05D"/>
<stop offset="1" stop-color="#E16039"/>
</linearGradient>
</defs>
</svg>
