<svg width="127" height="47" viewBox="0 0 127 47" fill="none" xmlns="http://www.w3.org/2000/svg">
<path d="M7.53702 2.75391C6.08759 2.75391 4.99247 3.07601 4.25165 3.72019C3.51083 4.36438 3.14042 5.31457 3.14042 6.57073V8.02016H10.5083V10.6774H3.14042V17.1516H0V6.57073C0 4.52543 0.652242 2.92301 1.95673 1.76347C3.27732 0.587823 5.0891 0 7.39208 0C8.35836 0 9.26023 0.104681 10.0977 0.314043C10.9351 0.523405 11.6679 0.829395 12.296 1.23201L11.3055 3.79267C10.307 3.10016 9.05087 2.75391 7.53702 2.75391Z" fill="#292626"/>
<path d="M17.0023 6.13591C17.8719 4.78311 19.4019 4.10671 21.5921 4.10671V6.98141C21.3344 6.93309 21.1009 6.90893 20.8916 6.90893C19.7159 6.90893 18.7979 7.25519 18.1377 7.94769C17.4774 8.62409 17.1472 9.60648 17.1472 10.8949V17.1516H14.1276V4.25165H17.0023V6.13591Z" fill="#292626"/>
<path d="M36.6458 4.25165V17.1516H33.7711V15.4847C33.2718 16.0967 32.6518 16.5557 31.911 16.8617C31.1863 17.1677 30.381 17.3207 29.4953 17.3207C28.2391 17.3207 27.1118 17.0469 26.1133 16.4993C25.1309 15.9517 24.3579 15.1787 23.7942 14.1802C23.2466 13.1817 22.9728 12.0222 22.9728 10.7016C22.9728 9.38101 23.2466 8.22952 23.7942 7.24713C24.3579 6.24864 25.1309 5.47561 26.1133 4.92805C27.1118 4.38049 28.2391 4.10671 29.4953 4.10671C30.3327 4.10671 31.0977 4.25165 31.7902 4.54154C32.4988 4.83142 33.1108 5.2582 33.6261 5.82186V4.25165H36.6458ZM29.8335 14.7358C30.9447 14.7358 31.8627 14.3654 32.5874 13.6246C33.3121 12.8838 33.6744 11.9095 33.6744 10.7016C33.6744 9.49375 33.3121 8.51941 32.5874 7.77859C31.8627 7.03777 30.9447 6.66736 29.8335 6.66736C28.7222 6.66736 27.8043 7.03777 27.0796 7.77859C26.3709 8.51941 26.0166 9.49375 26.0166 10.7016C26.0166 11.9095 26.3709 12.8838 27.0796 13.6246C27.8043 14.3654 28.7222 14.7358 29.8335 14.7358Z" fill="#292626"/>
<path d="M56.8785 4.10671C58.5051 4.10671 59.7934 4.5818 60.7436 5.53198C61.6938 6.46605 62.1689 7.87522 62.1689 9.75947V17.1516H59.1493V10.146C59.1493 9.01866 58.8996 8.17316 58.4004 7.60949C57.9011 7.02972 57.1845 6.73983 56.2504 6.73983C55.2358 6.73983 54.4225 7.07803 53.8105 7.75443C53.1986 8.41473 52.8926 9.36491 52.8926 10.605V17.1516H49.8729V10.146C49.8729 9.01866 49.6233 8.17316 49.1241 7.60949C48.6248 7.02972 47.9081 6.73983 46.9741 6.73983C45.9434 6.73983 45.122 7.06998 44.51 7.73028C43.9142 8.39057 43.6162 9.3488 43.6162 10.605V17.1516H40.5966V4.25165H43.4713V5.89434C43.9544 5.31457 44.5584 4.87168 45.2831 4.56569C46.0078 4.2597 46.813 4.10671 47.6988 4.10671C48.6651 4.10671 49.5186 4.29191 50.2594 4.66232C51.0164 5.01663 51.6122 5.54808 52.0471 6.25669C52.5785 5.58029 53.263 5.05689 54.1004 4.68648C54.9379 4.29997 55.8639 4.10671 56.8785 4.10671Z" fill="#292626"/>
<path d="M72.2815 14.76C73.6826 14.76 74.8502 14.293 75.7843 13.3589L77.3786 15.219C76.815 15.9115 76.0902 16.4349 75.2045 16.7892C74.3187 17.1435 73.3202 17.3207 72.209 17.3207C70.7918 17.3207 69.5437 17.0388 68.4647 16.4752C67.3856 15.9115 66.5482 15.1304 65.9523 14.1319C65.3725 13.1173 65.0827 11.9739 65.0827 10.7016C65.0827 9.44543 65.3645 8.3181 65.9282 7.31961C66.5079 6.30501 67.2971 5.51587 68.2955 4.95221C69.3102 4.38854 70.4536 4.10671 71.7259 4.10671C72.9337 4.10671 74.0288 4.37244 75.0112 4.90389C76.0097 5.41925 76.7989 6.16812 77.3786 7.15051C77.9584 8.11679 78.2483 9.25218 78.2483 10.5567L68.368 12.4892C68.674 13.23 69.1652 13.7937 69.8416 14.1802C70.518 14.5667 71.3313 14.76 72.2815 14.76ZM71.7259 6.52242C70.6146 6.52242 69.7128 6.88478 69.0203 7.60949C68.3439 8.3342 68.0057 9.30854 68.0057 10.5325V10.5567L75.3011 9.15555C75.0918 8.36641 74.665 7.73028 74.0208 7.24713C73.3927 6.76399 72.6277 6.52242 71.7259 6.52242Z" fill="#292626"/>
<path d="M55.8512 23.8914C54.4018 23.8914 53.3067 24.2135 52.5659 24.8577C51.8251 25.5019 51.4547 26.452 51.4547 27.7082V29.1576H58.8226V31.8149H51.4547V38.289H48.3142V27.7082C48.3142 25.6629 48.9665 24.0605 50.271 22.9009C51.5915 21.7253 53.4033 21.1375 55.7063 21.1375C56.6726 21.1375 57.5745 21.2422 58.4119 21.4515C59.2493 21.6609 59.9821 21.9669 60.6102 22.3695L59.6198 24.9301C58.6213 24.2376 57.3651 23.8914 55.8512 23.8914Z" fill="#292626"/>
<path d="M65.3165 27.2734C66.1861 25.9206 67.7161 25.2442 69.9063 25.2442V28.1189C69.6487 28.0706 69.4151 28.0464 69.2058 28.0464C68.0301 28.0464 67.1122 28.3927 66.4519 29.0852C65.7916 29.7616 65.4614 30.7439 65.4614 32.0323V38.289H62.4418V25.3891H65.3165V27.2734Z" fill="#292626"/>
<path d="M84.96 25.3891V38.289H82.0853V36.6222C81.5861 37.2342 80.966 37.6931 80.2252 37.9991C79.5005 38.3051 78.6953 38.4581 77.8095 38.4581C76.5533 38.4581 75.426 38.1843 74.4275 37.6368C73.4451 37.0892 72.6721 36.3162 72.1084 35.3177C71.5609 34.3192 71.2871 33.1597 71.2871 31.8391C71.2871 30.5185 71.5609 29.367 72.1084 28.3846C72.6721 27.3861 73.4451 26.6131 74.4275 26.0655C75.426 25.518 76.5533 25.2442 77.8095 25.2442C78.6469 25.2442 79.4119 25.3891 80.1044 25.679C80.813 25.9689 81.425 26.3957 81.9404 26.9593V25.3891H84.96ZM78.1477 35.8733C79.2589 35.8733 80.1769 35.5029 80.9016 34.7621C81.6263 34.0213 81.9887 33.0469 81.9887 31.8391C81.9887 30.6312 81.6263 29.6569 80.9016 28.9161C80.1769 28.1752 79.2589 27.8048 78.1477 27.8048C77.0365 27.8048 76.1185 28.1752 75.3938 28.9161C74.6852 29.6569 74.3309 30.6312 74.3309 31.8391C74.3309 33.0469 74.6852 34.0213 75.3938 34.7621C76.1185 35.5029 77.0365 35.8733 78.1477 35.8733Z" fill="#292626"/>
<path d="M105.193 25.2442C106.819 25.2442 108.108 25.7193 109.058 26.6695C110.008 27.6035 110.483 29.0127 110.483 30.8969V38.289H107.463V31.2835C107.463 30.1561 107.214 29.3106 106.715 28.747C106.215 28.1672 105.499 27.8773 104.565 27.8773C103.55 27.8773 102.737 28.2155 102.125 28.8919C101.513 29.5522 101.207 30.5024 101.207 31.7424V38.289H98.1871V31.2835C98.1871 30.1561 97.9375 29.3106 97.4383 28.747C96.939 28.1672 96.2224 27.8773 95.2883 27.8773C94.2576 27.8773 93.4362 28.2075 92.8243 28.8678C92.2284 29.528 91.9305 30.4863 91.9305 31.7424V38.289H88.9108V25.3891H91.7855V27.0318C92.2687 26.452 92.8726 26.0092 93.5973 25.7032C94.322 25.3972 95.1273 25.2442 96.013 25.2442C96.9793 25.2442 97.8328 25.4294 98.5737 25.7998C99.3306 26.1541 99.9265 26.6856 100.361 27.3942C100.893 26.7178 101.577 26.1944 102.415 25.824C103.252 25.4374 104.178 25.2442 105.193 25.2442Z" fill="#292626"/>
<path d="M120.596 35.8975C121.997 35.8975 123.164 35.4304 124.098 34.4964L125.693 36.3565C125.129 37.049 124.404 37.5724 123.519 37.9267C122.633 38.281 121.634 38.4581 120.523 38.4581C119.106 38.4581 117.858 38.1763 116.779 37.6126C115.7 37.049 114.862 36.2679 114.267 35.2694C113.687 34.2548 113.397 33.1114 113.397 31.8391C113.397 30.5829 113.679 29.4556 114.242 28.4571C114.822 27.4425 115.611 26.6533 116.61 26.0897C117.624 25.526 118.768 25.2442 120.04 25.2442C121.248 25.2442 122.343 25.5099 123.325 26.0414C124.324 26.5567 125.113 27.3056 125.693 28.288C126.273 29.2543 126.563 30.3896 126.563 31.6941L116.682 33.6267C116.988 34.3675 117.479 34.9312 118.156 35.3177C118.832 35.7042 119.646 35.8975 120.596 35.8975ZM120.04 27.6599C118.929 27.6599 118.027 28.0223 117.334 28.747C116.658 29.4717 116.32 30.446 116.32 31.67V31.6941L123.615 30.293C123.406 29.5039 122.979 28.8677 122.335 28.3846C121.707 27.9015 120.942 27.6599 120.04 27.6599Z" fill="#292626"/>
<path d="M32.8029 14.6981L24.329 28.0789C25.6501 26.2671 26.6378 25.0529 27.2921 24.4364C27.9463 23.8199 28.5691 23.5117 29.1605 23.5117C29.865 23.5117 30.4375 23.801 30.8779 24.3798C31.3308 24.946 31.5573 25.6632 31.5573 26.5313C31.5573 28.4312 30.3494 30.2996 27.9337 32.1365C26.1345 33.5079 24.5366 34.1936 23.1401 34.1936C22.4858 34.1936 21.9511 33.9483 21.5359 33.4576C21.1333 32.9543 20.9319 32.3064 20.9319 31.5137C20.9319 30.5701 21.5359 29.1295 22.7437 27.1919L30.557 14.6603C30.8968 14.761 31.2616 14.8113 31.6517 14.8113C31.9536 14.8113 32.3374 14.7736 32.8029 14.6981ZM30.1796 25.0592C30.1796 24.2162 29.8273 23.7948 29.1227 23.7948C28.2042 23.7948 26.6378 25.3109 24.4234 28.3431C22.7626 30.6078 21.9322 32.1302 21.9322 32.9103C21.9322 33.5771 22.2593 33.9105 22.9136 33.9105C24.046 33.9105 25.5369 32.7845 27.3864 30.5323C29.2485 28.2676 30.1796 26.4432 30.1796 25.0592Z" fill="#3A55D2"/>
<path d="M44.7305 27.8524C44.7305 28.0411 44.0385 28.903 42.6545 30.438C41.1195 32.1239 39.119 33.6463 36.6529 35.0052L35.7282 36.666C33.9038 39.9372 31.9977 42.3718 30.0097 43.9697C27.9589 45.6179 26.1786 46.442 24.6688 46.442C24.1529 46.442 23.7251 46.2785 23.3854 45.9514C23.0331 45.6242 22.857 45.2216 22.857 44.7435C22.857 42.2146 25.7697 39.5975 31.595 36.8924C32.0732 36.6534 32.7903 36.32 33.7465 35.8922L34.0296 35.7223L37.3512 29.8152C36.0427 31.6144 35.0928 32.7971 34.5015 33.3632C33.9101 33.9168 33.3125 34.1936 32.7085 34.1936C32.1927 34.1936 31.7397 33.9735 31.3497 33.5331C30.9723 33.0927 30.7835 32.5769 30.7835 31.9855C30.7835 31.2684 31.2302 30.1486 32.1235 28.6262L35.0299 23.7193C35.3193 23.7696 35.6527 23.7948 36.0301 23.7948C36.3573 23.7948 36.8102 23.7507 37.389 23.6626L33.6711 29.7019C32.6142 31.4131 32.0857 32.5328 32.0857 33.0613C32.0857 33.6275 32.3437 33.9105 32.8595 33.9105C34.2184 33.9105 36.3069 31.5011 39.1253 26.6823L40.8616 23.7193C41.1509 23.7696 41.5032 23.7948 41.9184 23.7948C42.2582 23.7948 42.6796 23.7507 43.1829 23.6626C41.6228 26.1413 39.509 29.7774 36.8417 34.5711C38.3767 33.7784 39.6726 32.9229 40.7295 32.0044C41.7863 31.0733 42.969 29.7648 44.2775 28.0789C44.4537 27.8524 44.5669 27.7392 44.6172 27.7392C44.6927 27.7392 44.7305 27.7769 44.7305 27.8524ZM33.8409 36.0432C33.6396 36.1564 32.9287 36.515 31.7083 37.1189C25.9836 39.9624 23.1212 42.5165 23.1212 44.7812C23.1212 45.7249 23.6496 46.1967 24.7065 46.1967C26.0402 46.1967 27.3676 45.4732 28.6886 44.0263C30.0097 42.5794 31.6454 40.0442 33.5956 36.4206C33.5956 36.4206 33.6773 36.2948 33.8409 36.0432Z" fill="#3A55D2"/>
</svg>
