<svg xmlns="http://www.w3.org/2000/svg" width="125" height="46" viewBox="0 0 125 46" fill="none">
  <path d="M7.44397 2.71991C6.01244 2.71991 4.93083 3.03803 4.19916 3.67427C3.46749 4.3105 3.10165 5.24895 3.10165 6.48961V7.92115H10.3786V10.5456H3.10165V16.9398H0V6.48961C0 4.46956 0.64419 2.88692 1.93257 1.7417C3.23685 0.580566 5.02627 0 7.30082 0C8.25517 0 9.1459 0.103389 9.97301 0.310166C10.8001 0.516943 11.5238 0.819155 12.1442 1.2168L11.166 3.74584C10.1798 3.06189 8.93913 2.71991 7.44397 2.71991Z" fill="black"/>
  <path d="M16.7924 6.06015C17.6513 4.72406 19.1623 4.05601 21.3255 4.05601V6.89522C21.0711 6.8475 20.8404 6.82364 20.6336 6.82364C19.4725 6.82364 18.5659 7.16562 17.9137 7.84957C17.2616 8.51762 16.9355 9.48788 16.9355 10.7604V16.9398H13.9532V4.19916H16.7924V6.06015Z" fill="black"/>
  <path d="M36.1934 4.19916V16.9398H33.3541V15.2935C32.8611 15.898 32.2487 16.3513 31.517 16.6535C30.8012 16.9557 30.006 17.1068 29.1311 17.1068C27.8905 17.1068 26.7771 16.8364 25.7909 16.2956C24.8206 15.7548 24.0571 14.9913 23.5004 14.0052C22.9596 13.019 22.6892 11.8738 22.6892 10.5695C22.6892 9.2652 22.9596 8.12792 23.5004 7.15766C24.0571 6.1715 24.8206 5.40801 25.7909 4.86721C26.7771 4.32641 27.8905 4.05601 29.1311 4.05601C29.9582 4.05601 30.7138 4.19916 31.3977 4.48547C32.0976 4.77178 32.702 5.19328 33.211 5.74999V4.19916H36.1934ZM29.4652 14.5539C30.5627 14.5539 31.4693 14.1881 32.1851 13.4564C32.9008 12.7247 33.2587 11.7624 33.2587 10.5695C33.2587 9.37654 32.9008 8.41423 32.1851 7.68256C31.4693 6.95089 30.5627 6.58505 29.4652 6.58505C28.3676 6.58505 27.461 6.95089 26.7452 7.68256C26.0454 8.41423 25.6954 9.37654 25.6954 10.5695C25.6954 11.7624 26.0454 12.7247 26.7452 13.4564C27.461 14.1881 28.3676 14.5539 29.4652 14.5539Z" fill="black"/>
  <path d="M56.1763 4.05601C57.7828 4.05601 59.0553 4.52523 59.9937 5.46368C60.9322 6.38623 61.4014 7.77799 61.4014 9.63899V16.9398H58.419V10.0207C58.419 8.90731 58.1725 8.07225 57.6794 7.51555C57.1863 6.94293 56.4785 6.65663 55.556 6.65663C54.5539 6.65663 53.7506 6.99065 53.1462 7.6587C52.5418 8.31084 52.2396 9.24929 52.2396 10.474V16.9398H49.2572V10.0207C49.2572 8.90731 49.0107 8.07225 48.5176 7.51555C48.0245 6.94293 47.3167 6.65663 46.3941 6.65663C45.3762 6.65663 44.565 6.9827 43.9605 7.63484C43.372 8.28698 43.0778 9.23339 43.0778 10.474V16.9398H40.0954V4.19916H42.9346V5.82157C43.4118 5.24895 44.0083 4.81154 44.724 4.50933C45.4398 4.20712 46.2351 4.05601 47.1099 4.05601C48.0643 4.05601 48.9073 4.23893 49.639 4.60476C50.3865 4.95469 50.975 5.47959 51.4045 6.17945C51.9294 5.5114 52.6054 4.99446 53.4325 4.62862C54.2596 4.24688 55.1742 4.05601 56.1763 4.05601Z" fill="black"/>
  <path d="M71.3891 14.5778C72.7729 14.5778 73.9261 14.1165 74.8486 13.194L76.4233 15.0311C75.8666 15.715 75.1509 16.232 74.276 16.5819C73.4012 16.9318 72.415 17.1068 71.3175 17.1068C69.9178 17.1068 68.6851 16.8285 67.6194 16.2718C66.5537 15.715 65.7266 14.9436 65.1381 13.9574C64.5655 12.9554 64.2792 11.826 64.2792 10.5695C64.2792 9.32882 64.5575 8.21541 65.1142 7.22924C65.6868 6.22717 66.4662 5.44778 67.4524 4.89107C68.4545 4.33436 69.5838 4.05601 70.8404 4.05601C72.0333 4.05601 73.1149 4.31846 74.0852 4.84335C75.0713 5.35234 75.8507 6.09197 76.4233 7.06223C76.9959 8.01658 77.2822 9.13795 77.2822 10.4263L67.524 12.335C67.8262 13.0667 68.3113 13.6234 68.9794 14.0052C69.6474 14.3869 70.4507 14.5778 71.3891 14.5778ZM70.8404 6.4419C69.7428 6.4419 68.8521 6.79978 68.1682 7.51555C67.5001 8.23131 67.1661 9.19362 67.1661 10.4025V10.4263L74.3715 9.04251C74.1647 8.26312 73.7432 7.63484 73.1069 7.15766C72.4866 6.68049 71.7311 6.4419 70.8404 6.4419Z" fill="black"/>
  <path d="M55.1617 23.5964C53.7302 23.5964 52.6486 23.9145 51.9169 24.5508C51.1852 25.187 50.8194 26.1255 50.8194 27.3661V28.7977H58.0964V31.4221H50.8194V37.8163H47.7178V27.3661C47.7178 25.3461 48.3619 23.7634 49.6503 22.6182C50.9546 21.4571 52.744 20.8765 55.0186 20.8765C55.9729 20.8765 56.8637 20.9799 57.6908 21.1867C58.5179 21.3935 59.2416 21.6957 59.8619 22.0933L58.8837 24.6224C57.8975 23.9384 56.6569 23.5964 55.1617 23.5964Z" fill="black"/>
  <path d="M64.5101 26.9367C65.369 25.6006 66.8801 24.9325 69.0433 24.9325V27.7717C68.7888 27.724 68.5582 27.7002 68.3514 27.7002C67.1903 27.7002 66.2836 28.0421 65.6315 28.7261C64.9793 29.3941 64.6533 30.3644 64.6533 31.6369V37.8163H61.6709V25.0757H64.5101V26.9367Z" fill="black"/>
  <path d="M83.9111 25.0757V37.8163H81.0719V36.1701C80.5788 36.7745 79.9664 37.2278 79.2348 37.53C78.519 37.8322 77.7237 37.9833 76.8489 37.9833C75.6082 37.9833 74.4948 37.7129 73.5086 37.1721C72.5384 36.6313 71.7749 35.8678 71.2182 34.8817C70.6774 33.8955 70.407 32.7503 70.407 31.446C70.407 30.1417 70.6774 29.0044 71.2182 28.0342C71.7749 27.048 72.5384 26.2845 73.5086 25.7437C74.4948 25.2029 75.6082 24.9325 76.8489 24.9325C77.676 24.9325 78.4315 25.0757 79.1155 25.362C79.8153 25.6483 80.4198 26.0698 80.9287 26.6265V25.0757H83.9111ZM77.1829 35.4304C78.2804 35.4304 79.187 35.0646 79.9028 34.3329C80.6186 33.6012 80.9765 32.6389 80.9765 31.446C80.9765 30.2531 80.6186 29.2907 79.9028 28.5591C79.187 27.8274 78.2804 27.4616 77.1829 27.4616C76.0854 27.4616 75.1788 27.8274 74.463 28.5591C73.7631 29.2907 73.4132 30.2531 73.4132 31.446C73.4132 32.6389 73.7631 33.6012 74.463 34.3329C75.1788 35.0646 76.0854 35.4304 77.1829 35.4304Z" fill="black"/>
  <path d="M103.894 24.9325C105.501 24.9325 106.773 25.4017 107.711 26.3402C108.65 27.2627 109.119 28.6545 109.119 30.5155V37.8163H106.137V30.8972C106.137 29.7838 105.89 28.9488 105.397 28.3921C104.904 27.8195 104.196 27.5331 103.274 27.5331C102.272 27.5331 101.468 27.8672 100.864 28.5352C100.26 29.1874 99.9573 30.1258 99.9573 31.3506V37.8163H96.975V30.8972C96.975 29.7838 96.7284 28.9488 96.2353 28.3921C95.7423 27.8195 95.0344 27.5331 94.1119 27.5331C93.0939 27.5331 92.2827 27.8592 91.6783 28.5114C91.0898 29.1635 90.7955 30.1099 90.7955 31.3506V37.8163H87.8131V25.0757H90.6524V26.6981C91.1295 26.1255 91.726 25.6881 92.4418 25.3858C93.1575 25.0836 93.9528 24.9325 94.8277 24.9325C95.782 24.9325 96.625 25.1154 97.3567 25.4813C98.1043 25.8312 98.6928 26.3561 99.1223 27.056C99.6471 26.3879 100.323 25.871 101.15 25.5051C101.977 25.1234 102.892 24.9325 103.894 24.9325Z" fill="black"/>
  <path d="M119.107 35.4543C120.491 35.4543 121.644 34.993 122.566 34.0705L124.141 35.9076C123.584 36.5916 122.869 37.1085 121.994 37.4584C121.119 37.8084 120.133 37.9833 119.035 37.9833C117.636 37.9833 116.403 37.705 115.337 37.1483C114.271 36.5916 113.444 35.8201 112.856 34.834C112.283 33.8319 111.997 32.7026 111.997 31.446C111.997 30.2053 112.275 29.0919 112.832 28.1058C113.405 27.1037 114.184 26.3243 115.17 25.7676C116.172 25.2109 117.302 24.9325 118.558 24.9325C119.751 24.9325 120.833 25.195 121.803 25.7199C122.789 26.2289 123.568 26.9685 124.141 27.9387C124.714 28.8931 125 30.0145 125 31.3028L115.242 33.2116C115.544 33.9432 116.029 34.4999 116.697 34.8817C117.365 35.2634 118.168 35.4543 119.107 35.4543ZM118.558 27.3184C117.461 27.3184 116.57 27.6763 115.886 28.3921C115.218 29.1078 114.884 30.0701 114.884 31.279V31.3028L122.089 29.919C121.882 29.1396 121.461 28.5114 120.825 28.0342C120.204 27.557 119.449 27.3184 118.558 27.3184Z" fill="black"/>
  <path d="M32.3979 14.5166L24.0287 27.7322C25.3335 25.9428 26.3089 24.7436 26.9551 24.1347C27.6013 23.5258 28.2164 23.2214 28.8005 23.2214C29.4963 23.2214 30.0618 23.5072 30.4967 24.0788C30.944 24.638 31.1677 25.3463 31.1677 26.2038C31.1677 28.0802 29.9748 29.9255 27.5889 31.7398C25.8119 33.0942 24.2337 33.7715 22.8544 33.7715C22.2082 33.7715 21.6801 33.5292 21.27 33.0445C20.8724 32.5475 20.6735 31.9075 20.6735 31.1247C20.6735 30.1927 21.27 28.7698 22.4629 26.8561L30.1798 14.4794C30.5153 14.5788 30.8757 14.6285 31.2609 14.6285C31.5591 14.6285 31.9382 14.5912 32.3979 14.5166ZM29.807 24.7499C29.807 23.9173 29.4591 23.501 28.7632 23.501C27.856 23.501 26.3089 24.9984 24.1219 27.9932C22.4816 30.2299 21.6614 31.7335 21.6614 32.504C21.6614 33.1626 21.9845 33.4919 22.6307 33.4919C23.7491 33.4919 25.2216 32.3797 27.0483 30.1554C28.8874 27.9186 29.807 26.1168 29.807 24.7499Z" fill="#3A55D2"/>
  <path d="M44.1782 27.5085C44.1782 27.6949 43.4948 28.5462 42.1279 30.0622C40.6118 31.7273 38.636 33.2309 36.2004 34.573L35.2871 36.2133C33.4852 39.4442 31.6026 41.8487 29.6392 43.4269C27.6137 45.0548 25.8554 45.8687 24.3642 45.8687C23.8547 45.8687 23.4322 45.7071 23.0967 45.3841C22.7488 45.061 22.5748 44.6633 22.5748 44.1911C22.5748 41.6934 25.4515 39.1087 31.205 36.437C31.6772 36.2009 32.3855 35.8716 33.3299 35.4491L33.6095 35.2813L36.8901 29.4471C35.5978 31.2241 34.6596 32.3922 34.0755 32.9513C33.4915 33.4981 32.9012 33.7715 32.3047 33.7715C31.7952 33.7715 31.3479 33.554 30.9627 33.1191C30.5899 32.6842 30.4035 32.1747 30.4035 31.5906C30.4035 30.8823 30.8446 29.7764 31.7269 28.2728L34.5974 23.4264C34.8832 23.4761 35.2125 23.501 35.5853 23.501C35.9084 23.501 36.3558 23.4575 36.9274 23.3705L33.2554 29.3352C32.2115 31.0252 31.6896 32.1312 31.6896 32.6531C31.6896 33.2123 31.9444 33.4919 32.4538 33.4919C33.7959 33.4919 35.8587 31.1122 38.6422 26.3529L40.3571 23.4264C40.6429 23.4761 40.9909 23.501 41.4009 23.501C41.7364 23.501 42.1527 23.4575 42.6498 23.3705C41.1089 25.8185 39.0213 29.4098 36.3868 34.1443C37.9029 33.3614 39.1828 32.5164 40.2266 31.6093C41.2705 30.6897 42.4385 29.3974 43.7309 27.7322C43.9049 27.5085 44.0167 27.3967 44.0664 27.3967C44.141 27.3967 44.1782 27.434 44.1782 27.5085ZM33.4231 35.5982C33.2243 35.71 32.5222 36.0642 31.3168 36.6607C25.6628 39.469 22.8357 41.9916 22.8357 44.2284C22.8357 45.1604 23.3577 45.6264 24.4015 45.6264C25.7187 45.6264 27.0297 44.9118 28.3345 43.4828C29.6392 42.0538 31.2547 39.5498 33.1808 35.971C33.1808 35.971 33.2616 35.8467 33.4231 35.5982Z" fill="#3A55D2"/>
</svg>
