<svg width="221" height="197" viewBox="0 0 221 197" fill="none" xmlns="http://www.w3.org/2000/svg">
<g opacity="0.4">
<path fill-rule="evenodd" clip-rule="evenodd" d="M131.767 23.7966C134.938 24.5522 136.896 27.7353 136.14 30.9062L134.316 38.5615C133.561 41.7324 130.378 43.6904 127.207 42.9348C124.036 42.1791 122.078 38.9961 122.833 35.8252L124.658 28.1699C125.413 24.999 128.596 23.041 131.767 23.7966ZM73.5701 32.7396C76.3465 31.0317 79.9818 31.898 81.6897 34.6745L85.7714 41.3101C87.4793 44.0865 86.613 47.7218 83.8366 49.4297C81.0601 51.1376 77.4248 50.2713 75.717 47.4949L71.6352 40.8592C69.9273 38.0828 70.7936 34.4475 73.5701 32.7396ZM179.677 58.0242C181.385 60.8007 180.519 64.4359 177.742 66.1438L171.106 70.2256C168.33 71.9334 164.695 71.0672 162.987 68.2907C161.279 65.5143 162.145 61.879 164.922 60.1711L171.557 56.0893C174.334 54.3815 177.969 55.2477 179.677 58.0242ZM121.734 65.9005C114.906 64.2733 107.738 64.8359 101.247 67.5086C94.7562 70.1812 89.2707 74.8284 85.5676 80.7919C81.8646 86.7555 80.1318 93.7329 80.6146 100.736C81.0975 107.739 83.7716 114.413 88.258 119.811C88.4301 120.019 88.5879 120.237 88.7301 120.466C90.1268 122.711 91.2474 125.105 92.0746 127.597L120.382 134.343C122.244 132.492 124.324 130.86 126.583 129.486C126.813 129.346 127.053 129.222 127.3 129.115C133.739 126.32 139.135 121.569 142.724 115.536C146.314 109.504 147.914 102.495 147.298 95.5019C146.682 88.5093 143.882 81.8876 139.294 76.5749C134.706 71.2622 128.563 67.5277 121.734 65.9005ZM126.66 145.063C126.957 144.764 127.223 144.431 127.453 144.07C128.872 142.395 130.541 140.942 132.406 139.765C140.939 135.961 148.089 129.607 152.869 121.572C157.725 113.41 159.89 103.927 159.057 94.4666C158.224 85.006 154.436 76.0472 148.228 68.8594C142.021 61.6716 133.709 56.6191 124.47 54.4176C115.232 52.2161 105.535 52.9773 96.7528 56.5932C87.9709 60.2091 80.5493 66.4966 75.5393 74.5649C70.5293 82.6331 68.1849 92.0732 68.8382 101.548C69.4813 110.875 72.9975 119.771 78.8979 127.014C80.0312 128.906 80.8658 130.956 81.3773 133.09C81.4189 133.516 81.5069 133.933 81.6371 134.334C81.7492 134.963 81.8336 135.597 81.8899 136.236C82.1878 139.62 81.685 143.026 80.4221 146.179C80.3146 146.448 80.2269 146.724 80.1599 147.006C78.8294 152.589 79.7714 158.472 82.7786 163.361C85.7858 168.25 90.6119 171.744 96.1953 173.074C101.779 174.405 107.662 173.463 112.551 170.455C117.439 167.448 120.933 162.622 122.264 157.039C122.331 156.757 122.377 156.471 122.402 156.183C122.697 152.799 123.785 149.532 125.577 146.646C125.915 146.101 126.276 145.573 126.66 145.063ZM113.266 144.782L93.7184 140.124C93.5154 143.53 92.7917 146.894 91.5651 150.097C91.0798 152.527 91.5297 155.057 92.8331 157.176C94.2 159.398 96.3937 160.986 98.9316 161.591C101.469 162.196 104.144 161.768 106.366 160.401C108.485 159.097 110.027 157.042 110.69 154.654C111.04 151.242 111.911 147.914 113.266 144.782ZM39.3425 80.6494C40.0981 77.4785 43.2812 75.5205 46.4521 76.2761L54.1073 78.1003C57.2782 78.8559 59.2362 82.039 58.4806 85.2099C57.725 88.3808 54.5419 90.3388 51.371 89.5832L43.7158 87.759C40.5449 87.0034 38.5869 83.8203 39.3425 80.6494ZM169.482 111.661C170.237 108.49 173.42 106.532 176.591 107.287L184.247 109.112C187.418 109.867 189.376 113.05 188.62 116.221C187.864 119.392 184.681 121.35 181.51 120.595L173.855 118.77C170.684 118.015 168.726 114.832 169.482 111.661Z" fill="white"/>
</g>
</svg>

